<?xml version="1.0" encoding="UTF-8"?>
<svg id="Layer_1" xmlns="http://www.w3.org/2000/svg" version="1.1" viewBox="0 0 512 512">
  <!-- Generator: Adobe Illustrator 29.8.1, SVG Export Plug-In . SVG Version: 2.1.1 Build 2)  -->
  <g>
    <path d="M94.97,226.85c4.71,3.31,7.06,8.03,7.06,14.16,0,3.99-1.05,7.42-3.14,10.31-2.09,2.89-5.13,5.12-9.12,6.69-3.99,1.57-8.72,2.35-14.2,2.35h-.67v13.15c0,.95-.47,1.42-1.42,1.42h-15.62c-.95,0-1.42-.47-1.42-1.42v-50.21c0-.95.47-1.42,1.42-1.42h17.78c8.17,0,14.61,1.66,19.31,4.97ZM75.43,247.13c2.54,0,4.46-.55,5.75-1.64,1.29-1.1,1.94-2.59,1.94-4.48s-.66-3.29-1.98-4.33c-1.32-1.05-3.18-1.57-5.57-1.57h-.67v12.03h.52Z"/>
    <path d="M155.08,272.08c.5.65.75,1.2.75,1.64,0,.8-.72,1.2-2.17,1.2h-16.36c-.9,0-1.62-.4-2.17-1.2l-9.94-17.63h-.07v17.41c0,.95-.5,1.42-1.49,1.42h-14.87c-.95,0-1.42-.47-1.42-1.42v-50.21c0-.95.47-1.42,1.42-1.42h21.22c4.53,0,8.48.67,11.84,2.02,3.36,1.35,5.95,3.25,7.77,5.72,1.82,2.47,2.73,5.34,2.73,8.63s-.92,6.15-2.76,8.74c-1.84,2.59-4.46,4.53-7.85,5.83l13.37,19.28ZM125.12,234.21v12.7h1.12c2.49,0,4.42-.57,5.79-1.72,1.37-1.15,2.05-2.74,2.05-4.78s-.67-3.46-2.02-4.56c-1.34-1.09-3.24-1.64-5.68-1.64h-1.27Z"/>
    <path d="M169.72,272.01c-4.33-2.29-7.8-5.5-10.39-9.64-2.59-4.13-3.89-8.84-3.89-14.12s1.28-9.91,3.85-14.05c2.56-4.13,6.01-7.35,10.35-9.64,4.33-2.29,9.04-3.44,14.12-3.44s9.7,1.15,14.01,3.44c4.31,2.29,7.74,5.5,10.31,9.64,2.56,4.13,3.85,8.82,3.85,14.05s-1.28,9.99-3.85,14.12c-2.57,4.13-5.99,7.35-10.27,9.64-4.28,2.29-8.97,3.44-14.05,3.44s-9.71-1.15-14.05-3.44ZM189.59,258.3c1.69-1.02,3.03-2.42,4-4.18.97-1.77,1.46-3.72,1.46-5.86s-.49-4.01-1.46-5.75c-.97-1.74-2.32-3.13-4.03-4.15-1.72-1.02-3.65-1.53-5.79-1.53s-4.15.51-5.86,1.53c-1.72,1.02-3.06,2.4-4.03,4.15-.97,1.74-1.46,3.66-1.46,5.75s.49,4.1,1.46,5.86c.97,1.77,2.32,3.16,4.03,4.18,1.72,1.02,3.67,1.53,5.86,1.53s4.13-.51,5.83-1.53Z"/>
    <path d="M286.5,273.5v.37c0,.7-.4,1.05-1.2,1.05h-15.54c-.9,0-1.42-.47-1.57-1.42l-3.29-26.37-8.67,26.45c-.4.85-1.02,1.27-1.87,1.27h-7.84c-.95,0-1.57-.42-1.87-1.27l-9.19-26.08-4.33,26c-.15.95-.7,1.42-1.64,1.42h-14.05c-.9,0-1.3-.47-1.2-1.42l9.71-50.21c.15-.95.7-1.42,1.64-1.42h13.9c1,0,1.62.45,1.87,1.34l9.64,28.24,8.97-28.24c.3-.9.9-1.34,1.79-1.34h12.63c1,0,1.57.47,1.72,1.42l10.38,50.21Z"/>
    <path d="M303.08,272.01c-4.33-2.29-7.8-5.5-10.38-9.64-2.59-4.13-3.88-8.84-3.88-14.12s1.28-9.91,3.85-14.05c2.56-4.13,6.01-7.35,10.35-9.64,4.33-2.29,9.04-3.44,14.12-3.44s9.7,1.15,14.01,3.44c4.31,2.29,7.75,5.5,10.31,9.64,2.57,4.13,3.85,8.82,3.85,14.05s-1.28,9.99-3.85,14.12c-2.57,4.13-5.99,7.35-10.27,9.64-4.28,2.29-8.97,3.44-14.05,3.44s-9.71-1.15-14.05-3.44ZM322.96,258.3c1.69-1.02,3.03-2.42,4-4.18.97-1.77,1.46-3.72,1.46-5.86s-.49-4.01-1.46-5.75c-.97-1.74-2.32-3.13-4.03-4.15-1.72-1.02-3.65-1.53-5.79-1.53s-4.15.51-5.87,1.53c-1.72,1.02-3.06,2.4-4.04,4.15-.97,1.74-1.46,3.66-1.46,5.75s.49,4.1,1.46,5.86c.97,1.77,2.32,3.16,4.04,4.18,1.72,1.02,3.67,1.53,5.87,1.53s4.13-.51,5.83-1.53Z"/>
  </g>
  <g id="layer1">
    <path id="path4191" d="M420.29,283.75c19.49,0,35.32-15.87,35.32-35.32s-15.82-35.32-35.32-35.32-35.32,15.87-35.32,35.32,15.82,35.32,35.32,35.32M392.57,261.93c-.44-4.39-.47-8.91-.47-13.5s.03-9.11.47-13.5c.24-2.39,1.43-2.94,3.64-3.17,7.66-.81,16.14-.99,24.08-.97,7.94-.02,16.42.16,24.08.97,2.22.23,3.4.78,3.64,3.17.44,4.39.47,8.91.47,13.5s-.03,9.11-.47,13.5c-.24,2.39-1.43,2.94-3.64,3.17-7.66.81-16.14.99-24.08.97-7.94.02-16.42-.16-24.08-.97-2.22-.23-3.4-.78-3.64-3.17"/>
    <path id="path4195" d="M420.29,262.66c7.91,0,14.28-6.39,14.28-14.22s-6.37-14.22-14.28-14.22-14.28,6.39-14.28,14.22,6.37,14.22,14.28,14.22"/>
  </g>
</svg>