<?xml version="1.0" encoding="utf-8"?>
<!-- Generator: Adobe Illustrator 27.0.0, SVG Export Plug-In . SVG Version: 6.00 Build 0)  -->
<svg version="1.1" id="Layer_1" xmlns="http://www.w3.org/2000/svg" xmlns:xlink="http://www.w3.org/1999/xlink" x="0px" y="0px"
	 viewBox="0 0 512 90.6" style="enable-background:new 0 0 512 90.6;" xml:space="preserve">
<g>
	<path d="M49.4,17.6c6,4.2,9.1,10.3,9.1,18.2c0,5.1-1.3,9.5-4,13.2c-2.7,3.7-6.6,6.6-11.7,8.6c-5.1,2-11.2,3-18.2,3h-0.9v16.9
		c0,1.2-0.6,1.8-1.8,1.8h-20c-1.2,0-1.8-0.6-1.8-1.8V13.1c0-1.2,0.6-1.8,1.8-1.8h22.8C35.1,11.2,43.4,13.4,49.4,17.6L49.4,17.6z
		 M24.4,43.6c3.3,0,5.7-0.7,7.4-2.1c1.7-1.4,2.5-3.3,2.5-5.7c0-2.4-0.8-4.2-2.5-5.6c-1.7-1.3-4.1-2-7.1-2h-0.9v15.4L24.4,43.6
		L24.4,43.6z"/>
	<path d="M126.5,75.6c0.6,0.8,1,1.5,1,2.1c0,1-0.9,1.5-2.8,1.5h-21c-1.2,0-2.1-0.5-2.8-1.5L88.2,55.1h-0.1v22.3
		c0,1.2-0.6,1.8-1.9,1.8H67.1c-1.2,0-1.8-0.6-1.8-1.8V13.1c0-1.2,0.6-1.8,1.8-1.8h27.2c5.8,0,10.9,0.9,15.2,2.6
		c4.3,1.7,7.6,4.2,10,7.3c2.3,3.2,3.5,6.8,3.5,11.1s-1.2,7.9-3.5,11.2c-2.4,3.3-5.7,5.8-10.1,7.5L126.5,75.6L126.5,75.6z M88.1,27.1
		v16.3h1.4c3.2,0,5.7-0.7,7.4-2.2c1.8-1.5,2.6-3.5,2.6-6.1c0-2.6-0.9-4.4-2.6-5.8c-1.7-1.4-4.2-2.1-7.3-2.1H88.1L88.1,27.1z"/>
	<path d="M145.3,75.5c-5.6-2.9-10-7.1-13.3-12.4c-3.3-5.3-5-11.3-5-18.1s1.6-12.7,4.9-18c3.3-5.3,7.7-9.4,13.3-12.4
		c5.6-2.9,11.6-4.4,18.1-4.4c6.5,0,12.4,1.5,18,4.4c5.5,2.9,9.9,7.1,13.2,12.4c3.3,5.3,4.9,11.3,4.9,18s-1.6,12.8-4.9,18.1
		s-7.7,9.4-13.2,12.4c-5.5,2.9-11.5,4.4-18,4.4C156.8,80,150.9,78.5,145.3,75.5L145.3,75.5z M170.8,58c2.2-1.3,3.9-3.1,5.1-5.4
		c1.2-2.3,1.9-4.8,1.9-7.5s-0.6-5.1-1.9-7.4s-3-4-5.2-5.3c-2.2-1.3-4.7-2-7.4-2c-2.7,0-5.3,0.7-7.5,2c-2.2,1.3-3.9,3.1-5.2,5.3
		c-1.2,2.2-1.9,4.7-1.9,7.4c0,2.7,0.6,5.3,1.9,7.5c1.2,2.3,3,4.1,5.2,5.4c2.2,1.3,4.7,2,7.5,2C166.1,59.9,168.6,59.3,170.8,58
		L170.8,58z"/>
	<path d="M295.1,77.5v0.5c0,0.9-0.5,1.3-1.5,1.3h-19.9c-1.2,0-1.8-0.6-2-1.8l-4.2-33.8l-11.1,33.9c-0.5,1.1-1.3,1.6-2.4,1.6h-10.1
		c-1.2,0-2-0.5-2.4-1.6l-11.8-33.5l-5.6,33.3c-0.2,1.2-0.9,1.8-2.1,1.8h-18c-1.2,0-1.7-0.6-1.5-1.8l12.5-64.4
		c0.2-1.2,0.9-1.8,2.1-1.8h17.8c1.3,0,2.1,0.6,2.4,1.7l12.4,36.2L261.1,13c0.4-1.2,1.2-1.7,2.3-1.7h16.2c1.3,0,2,0.6,2.2,1.8
		L295.1,77.5L295.1,77.5z"/>
	<path d="M316.4,75.5c-5.6-2.9-10-7.1-13.3-12.4c-3.3-5.3-5-11.3-5-18.1s1.6-12.7,4.9-18c3.3-5.3,7.7-9.4,13.3-12.4
		c5.6-2.9,11.6-4.4,18.1-4.4s12.4,1.5,18,4.4c5.5,2.9,9.9,7.1,13.2,12.4c3.3,5.3,4.9,11.3,4.9,18s-1.6,12.8-4.9,18.1
		s-7.7,9.4-13.2,12.4c-5.5,2.9-11.5,4.4-18,4.4S321.9,78.5,316.4,75.5L316.4,75.5z M341.9,58c2.2-1.3,3.9-3.1,5.1-5.4
		c1.2-2.3,1.9-4.8,1.9-7.5s-0.6-5.1-1.9-7.4s-3-4-5.2-5.3c-2.2-1.3-4.7-2-7.4-2c-2.7,0-5.3,0.7-7.5,2c-2.2,1.3-3.9,3.1-5.2,5.3
		c-1.2,2.2-1.9,4.7-1.9,7.4c0,2.7,0.6,5.3,1.9,7.5c1.2,2.3,3,4.1,5.2,5.4c2.2,1.3,4.7,2,7.5,2C337.2,59.9,339.7,59.3,341.9,58
		L341.9,58z"/>
</g>
<g id="layer1">
	<path id="path4191" d="M466.7,90.6c25,0,45.3-20.4,45.3-45.3S491.7,0,466.7,0s-45.3,20.4-45.3,45.3S441.7,90.6,466.7,90.6
		 M431.1,62.6c-0.6-5.6-0.6-11.4-0.6-17.3s0-11.7,0.6-17.3c0.3-3.1,1.8-3.8,4.7-4.1c9.8-1,20.7-1.3,30.9-1.2
		c10.2,0,21.1,0.2,30.9,1.2c2.8,0.3,4.4,1,4.7,4.1c0.6,5.6,0.6,11.4,0.6,17.3s0,11.7-0.6,17.3c-0.3,3.1-1.8,3.8-4.7,4.1
		c-9.8,1-20.7,1.3-30.9,1.2c-10.2,0-21.1-0.2-30.9-1.2C433,66.4,431.4,65.7,431.1,62.6"/>
	<path id="path4195" d="M466.7,63.6c10.1,0,18.3-8.2,18.3-18.2s-8.2-18.2-18.3-18.2c-10.1,0-18.3,8.2-18.3,18.2
		C448.4,55.4,456.6,63.6,466.7,63.6"/>
</g>
</svg>
